<svg xmlns="http://www.w3.org/2000/svg" viewBox="0 0 687.93 293.13"><defs><style>.cls-1{font-size:148.07px;}.cls-1,.cls-4{fill:#002a42;}.cls-1,.cls-2{font-family:FranklinGothicH-Bold, FranklinGothicH;font-weight:700;}.cls-2{font-size:122.42px;}.cls-2,.cls-5{fill:#00a5b2;}.cls-3{fill:#071a23;}.cls-6{fill:#57c6d4;}.cls-7{fill:#014a60;}.cls-8{fill:#015b78;}</style></defs><g id="Camada_2" data-name="Camada 2"><g id="Layer_1" data-name="Layer 1"><text class="cls-1" transform="translate(268.18 156.66)">FÊNIX</text><text class="cls-2" transform="translate(272.6 262.53) scale(1.02 1)">CARGO</text><path class="cls-3" d="M38.49,128.84S68,130,87.93,148.43C107.46,170.17,164.49,228,195.41,87.9c9,32.87,19.67,115.09-74.53,139.59C62.36,222,38.49,128.84,38.49,128.84Z"/><path class="cls-4" d="M195.41,87.9c13.72,94.56-13.36,46.19-28.83,97.08-14.45,36.25-35,23.57-75,17.75-64.31-11.54-52.34-21-52.34-21S4.69,227.27,92.21,247c23.29,7.32,95.29-33.14,95.29-33.14S239.25,156.24,195.41,87.9Z"/><path class="cls-5" d="M161.75,111.83C79,27.14,10,219.91,145.33,274.79,96.58,266,3.79,227.58,42.92,119.29,66,55.33,149.36,56.72,161.75,111.83Z"/><path class="cls-6" d="M157.51,118.35c6.58,0,13.38-2.85,12.38-17.46,4.2-2.34,4.65-7.65,4.23-16.83C173.21,61.77,162.79,32.32,136.88,0c-6.21,13.22-4.29,25.27,3.66,36.44C54.29,6-13,109.62,3.37,177c20.2,84.85,96,106.86,144.7,97.85C.86,234.4,20.44,97.8,98.09,73.53,140,60.43,171.06,111,157.51,118.35Z"/><path class="cls-7" d="M70.74,233.59c21.29,8.6,41.26,9.14,62.53,3.19C240.94,203.72,219.56,98.65,208,63.56c6.18-3.43,21.16,55.29,21.16,55.29C242.07,178.39,141.29,312.17,70.74,233.59Z"/><path class="cls-8" d="M186.3,264.66A125,125,0,0,1,16.3,216c-33.11-61.27-7.11-109.68,2.52-124.83-16,39.72-22.65,89.74,25.11,130.63,64,55.45,148.14,20.55,173.85-50C238.35,118.5,206.5,60.63,206.5,60.63c13,11.7,20.56,19.47,28.47,34A125,125,0,0,1,186.3,264.66Z"/></g></g></svg>